General                          : ChattChitto RG - Movies [R2L]
===========
Complete name                    : Dinner For Schmucks 2010 720p H264 BDRip [ChattChitto RG]
Format                           : MPEG-4
Format profile                   : Base Media
Codec ID                         : isom
File size                        : 2.09 GiB
Duration                         : 1h 54mn
Overall bit rate                 : 2 617 Kbps
Encoded date                     : UTC 2011-01-11 05:31:21

Video
===========
ID                               : 1
Format                           : AVC
Format/Info                      : Advanced Video Codec
Format profile                   : High@L4.0
Format settings, CABAC           : Yes
Format settings, ReFrames        : 4 frames
Codec ID                         : avc1
Codec ID/Info                    : Advanced Video Coding
Duration                         : 1h 54mn
Bit rate mode                    : Variable
Bit rate                         : 2 300 Kbps
Maximum bit rate                 : 12.6 Mbps
Width                            : 1 280 pixels
Height                           : 720 pixels
Display aspect ratio             : 16:9
Frame rate mode                  : Constant
Frame rate                       : 23.976 fps
Resolution                       : 24 bits
Colorimetry                      : 4:2:0
Scan type                        : Progressive
Bits/(Pixel*Frame)               : 0.104
Stream size                      : 1.83 GiB (88%)
Writing library                  : x264 core 84 r1400M 20fa784
Encoded date                     : UTC 2011-01-11 04:26:39

Audio
============
ID                               : 2
Format                           : AAC
Format/Info                      : Advanced Audio Codec
Format version                   : Version 4
Format profile                   : LC
Format settings, SBR             : No
Codec ID                         : 40
Duration                         : 1h 54mn
Bit rate mode                    : Variable
Bit rate                         : 314 Kbps
Maximum bit rate                 : 431 Kbps
Channel(s)                       : 6 channels
Channel positions                : Front: L C R, Rear: L R, LFE
Sampling rate                    : 48.0 KHz
Resolution                       : 16 bits
Stream size                      : 256 MiB (12%)
Encoded date                     : UTC 2011-01-11 05:32:27

Subtitles                        : English | French | Portuguese | Spanish


----------------------------------------------------
IMDB Link: http://www.imdb.com/title/tt0427152/
----------------------------------------------------



Screen Shots:
==============    
http://bayimg.com/padAiAADe 
http://bayimg.com/pADaJAADE 
http://bayimg.com/pADaKaADe 
http://bayimg.com/PadaLAaDe 
http://bayimg.com/pAdAMAaDE



ScreenShots Comparison:
=========================  
http://screenshotcomparison.com/comparison/19130



Plot:
======
When he finds out that his work superiors host a dinner celebrating the idiocy of their guests, a rising executive questions it when he's invited, just as he befriends a man who would be the perfect guest 



Release Info:
==============
original name .... : Dinner For Schmucks 2010 720p H264 BDRip [ChattChitto RG]
ripper.............: Recalled2Life (R2L)
encoder............: Recalled2Life (R2L)
video codec........: H264/.MP4
video bitrate......: 2300 Kbps
audio codec........: AAC-LC
aspect ratio.......: 1.78 | 16:9
resolution.........: 1280 x 720
genre..............: Comedy
runtime............: 1h 54mn
language...........: English
rating.............: PG-13
subtitles..........: English | French | Portuguese | Spanish
sample.............: yes [17.2 MB]
2ch Audio..........: 2ch Audio for XBox Viewers  
Compatibility .....: XBox 360 | PS3 | WD Live    



Source:
========
Dinner For Schmucks 2010 Blu-Ray 1080p DTS|m2ts - R2L [32.2 GB] Welcome!



Notes:
=======
ChattChitto RG Encourages Burning this Film with ConvertXtoDVD.
XBox 360 | PS3 | WD Live - Compatible
Enhanced and Filtered for your viewing pleasure ;)